<?xml version="1.0" encoding="utf-8"?>
<svg xmlns="http://www.w3.org/2000/svg" xmlns:xlink="http://www.w3.org/1999/xlink" style="margin: auto; background: rgb(255, 255, 255); display: block; z-index: 1; position: relative; shape-rendering: auto;" width="1920" height="923" preserveAspectRatio="xMidYMid" viewBox="0 0 1920 923">
<g transform="translate(960,461.5) scale(1,1) translate(-960,-461.5)"><linearGradient id="lg-0.25865313468376505" x1="0" x2="1" y1="0" y2="0">
  <stop stop-color="#043362" offset="0"></stop>
  <stop stop-color="#004b88" offset="1"></stop>
</linearGradient><path d="M 1507 462 C 1507 626 1237 784 1081 835 C 925 886 601 926 504 793 C 407 660 433 282 529 149 C 625 16 920 53 1076 104 C 1232 155 1507 298 1507 462" fill="url(#lg-0.25865313468376505)" opacity="0.4">
  <animate attributeName="d" dur="10s" repeatCount="indefinite" keyTimes="0;0.3333333333333333;0.6666666666666666;1" calcmod="spline" keySplines="0.3 0.1 0.7 0.9;0.3 0.1 0.7 0.9;0.3 0.1 0.7 0.9" begin="-4s" values="M 1507 462 C 1507 626 1237 784 1081 835 C 925 886 601 926 504 793 C 407 660 433 282 529 149 C 625 16 920 53 1076 104 C 1232 155 1507 298 1507 462;M 1579 462 C 1579 633 1253 812 1091 865 C 929 918 620 919 520 781 C 420 643 413 275 513 137 C 613 -1 925 18 1087 71 C 1249 124 1579 291 1579 462;M 1627 462 C 1627 633 1255 815 1092 868 C 929 921 667 886 566 748 C 465 610 369 243 470 105 C 571 -33 953 -71 1116 -18 C 1279 35 1627 291 1627 462;M 1507 462 C 1507 626 1237 784 1081 835 C 925 886 601 926 504 793 C 407 660 433 282 529 149 C 625 16 920 53 1076 104 C 1232 155 1507 298 1507 462"></animate>
</path><path d="M 1505 462 C 1505 629 1244 795 1085 847 C 926 899 621 914 523 779 C 425 644 368 237 466 102 C 564 -33 933 4 1092 56 C 1251 108 1505 295 1505 462" fill="url(#lg-0.25865313468376505)" opacity="0.4">
  <animate attributeName="d" dur="10s" repeatCount="indefinite" keyTimes="0;0.3333333333333333;0.6666666666666666;1" calcmod="spline" keySplines="0.3 0.1 0.7 0.9;0.3 0.1 0.7 0.9;0.3 0.1 0.7 0.9" begin="-4s" values="M 1505 462 C 1505 629 1244 795 1085 847 C 926 899 621 914 523 779 C 425 644 368 237 466 102 C 564 -33 933 4 1092 56 C 1251 108 1505 295 1505 462;M 1534 462 C 1534 624 1254 844 1100 894 C 946 944 658 881 563 750 C 468 619 403 257 498 126 C 593 -5 958 -56 1112 -6 C 1266 44 1534 300 1534 462;M 1546 462 C 1546 632 1243 786 1082 838 C 921 890 589 941 489 804 C 389 667 460 308 560 171 C 660 34 945 -39 1106 14 C 1267 67 1546 292 1546 462;M 1505 462 C 1505 629 1244 795 1085 847 C 926 899 621 914 523 779 C 425 644 368 237 466 102 C 564 -33 933 4 1092 56 C 1251 108 1505 295 1505 462"></animate>
</path><path d="M 1579 462 C 1579 631 1268 861 1107 913 C 946 965 608 926 509 789 C 410 652 369 241 468 104 C 567 -33 950 -56 1111 -4 C 1272 48 1579 293 1579 462" fill="url(#lg-0.25865313468376505)" opacity="0.4">
  <animate attributeName="d" dur="10s" repeatCount="indefinite" keyTimes="0;0.3333333333333333;0.6666666666666666;1" calcmod="spline" keySplines="0.3 0.1 0.7 0.9;0.3 0.1 0.7 0.9;0.3 0.1 0.7 0.9" begin="-4s" values="M 1579 462 C 1579 631 1268 861 1107 913 C 946 965 608 926 509 789 C 410 652 369 241 468 104 C 567 -33 950 -56 1111 -4 C 1272 48 1579 293 1579 462;M 1605 462 C 1605 646 1288 875 1113 932 C 938 989 575 970 466 821 C 357 672 390 275 499 126 C 608 -23 927 -33 1102 24 C 1277 81 1605 278 1605 462;M 1537 462 C 1537 637 1246 776 1080 830 C 914 884 637 913 534 771 C 431 629 438 299 541 157 C 644 15 941 -48 1108 6 C 1275 60 1537 287 1537 462;M 1579 462 C 1579 631 1268 861 1107 913 C 946 965 608 926 509 789 C 410 652 369 241 468 104 C 567 -33 950 -56 1111 -4 C 1272 48 1579 293 1579 462"></animate>
</path><path d="M 1608 462 C 1608 642 1274 846 1103 902 C 932 958 634 921 528 775 C 422 629 399 277 505 131 C 611 -15 957 -111 1128 -55 C 1299 1 1608 282 1608 462" fill="url(#lg-0.25865313468376505)" opacity="0.4">
  <animate attributeName="d" dur="10s" repeatCount="indefinite" keyTimes="0;0.3333333333333333;0.6666666666666666;1" calcmod="spline" keySplines="0.3 0.1 0.7 0.9;0.3 0.1 0.7 0.9;0.3 0.1 0.7 0.9" begin="-4s" values="M 1608 462 C 1608 642 1274 846 1103 902 C 932 958 634 921 528 775 C 422 629 399 277 505 131 C 611 -15 957 -111 1128 -55 C 1299 1 1608 282 1608 462;M 1605 462 C 1605 627 1248 813 1091 864 C 934 915 590 935 493 801 C 396 667 406 263 503 129 C 600 -5 941 -15 1098 36 C 1255 87 1605 297 1605 462;M 1566 462 C 1566 647 1262 792 1086 849 C 910 906 623 935 514 786 C 405 637 355 250 464 101 C 573 -48 923 -24 1099 33 C 1275 90 1566 277 1566 462;M 1608 462 C 1608 642 1274 846 1103 902 C 932 958 634 921 528 775 C 422 629 399 277 505 131 C 611 -15 957 -111 1128 -55 C 1299 1 1608 282 1608 462"></animate>
</path><path d="M 1498 462 C 1498 619 1245 829 1095 878 C 945 927 627 897 535 770 C 443 643 456 290 549 163 C 642 36 936 24 1086 73 C 1236 122 1498 305 1498 462" fill="url(#lg-0.25865313468376505)" opacity="0.4">
  <animate attributeName="d" dur="10s" repeatCount="indefinite" keyTimes="0;0.3333333333333333;0.6666666666666666;1" calcmod="spline" keySplines="0.3 0.1 0.7 0.9;0.3 0.1 0.7 0.9;0.3 0.1 0.7 0.9" begin="-4s" values="M 1498 462 C 1498 619 1245 829 1095 878 C 945 927 627 897 535 770 C 443 643 456 290 549 163 C 642 36 936 24 1086 73 C 1236 122 1498 305 1498 462;M 1509 462 C 1509 632 1276 882 1114 935 C 952 988 651 897 551 759 C 451 621 382 252 482 114 C 582 -24 915 50 1077 103 C 1239 156 1509 292 1509 462;M 1583 462 C 1583 633 1273 871 1110 924 C 947 977 665 888 564 749 C 463 610 462 312 563 173 C 664 34 942 -38 1105 15 C 1268 68 1583 291 1583 462;M 1498 462 C 1498 619 1245 829 1095 878 C 945 927 627 897 535 770 C 443 643 456 290 549 163 C 642 36 936 24 1086 73 C 1236 122 1498 305 1498 462"></animate>
</path></g>
</svg>