<?xml version="1.0" encoding="utf-8"?>
<svg xmlns="http://www.w3.org/2000/svg" xmlns:xlink="http://www.w3.org/1999/xlink" style="margin: auto; background: rgb(255, 255, 255); display: block; z-index: 1; position: relative; shape-rendering: auto;" width="1625" height="1240" preserveAspectRatio="xMidYMid" viewBox="0 0 1625 1240">
<g transform="translate(812.5,620) scale(1,1) translate(-812.5,-620)"><linearGradient id="lg-0.22130586982175027" x1="0" x2="1" y1="0" y2="0">
  <stop stop-color="#043362" offset="0"></stop>
  <stop stop-color="#004b88" offset="1"></stop>
</linearGradient><path d="M 1532 620 C 1532 804 1124 983 949 1040 C 774 1097 424 1130 316 981 C 208 832 210 410 318 261 C 426 112 791 89 966 146 C 1141 203 1532 436 1532 620" fill="url(#lg-0.22130586982175027)" opacity="0.4">
  <animate attributeName="d" dur="10s" repeatCount="indefinite" keyTimes="0;0.3333333333333333;0.6666666666666666;1" calcmod="spline" keySplines="0.3 0.1 0.7 0.9;0.3 0.1 0.7 0.9;0.3 0.1 0.7 0.9" begin="-4s" values="M 1532 620 C 1532 804 1124 983 949 1040 C 774 1097 424 1130 316 981 C 208 832 210 410 318 261 C 426 112 791 89 966 146 C 1141 203 1532 436 1532 620;M 1314 620 C 1314 781 1099 981 946 1031 C 793 1081 440 1089 346 959 C 252 829 259 416 353 286 C 447 156 797 147 950 197 C 1103 247 1314 459 1314 620;M 1401 620 C 1401 802 1121 981 948 1037 C 775 1093 453 1107 346 959 C 239 811 203 403 310 255 C 417 107 780 132 953 189 C 1126 246 1401 438 1401 620;M 1532 620 C 1532 804 1124 983 949 1040 C 774 1097 424 1130 316 981 C 208 832 210 410 318 261 C 426 112 791 89 966 146 C 1141 203 1532 436 1532 620"></animate>
</path><path d="M 1458 620 C 1458 788 1123 1032 963 1084 C 803 1136 503 1053 404 917 C 305 781 315 466 414 330 C 513 194 777 185 937 237 C 1097 289 1458 452 1458 620" fill="url(#lg-0.22130586982175027)" opacity="0.4">
  <animate attributeName="d" dur="10s" repeatCount="indefinite" keyTimes="0;0.3333333333333333;0.6666666666666666;1" calcmod="spline" keySplines="0.3 0.1 0.7 0.9;0.3 0.1 0.7 0.9;0.3 0.1 0.7 0.9" begin="-4s" values="M 1458 620 C 1458 788 1123 1032 963 1084 C 803 1136 503 1053 404 917 C 305 781 315 466 414 330 C 513 194 777 185 937 237 C 1097 289 1458 452 1458 620;M 1497 620 C 1497 798 1115 975 946 1030 C 777 1085 486 1077 382 933 C 278 789 217 407 322 263 C 427 119 782 138 951 193 C 1120 248 1497 442 1497 620;M 1390 620 C 1390 778 1099 991 949 1040 C 799 1089 504 1040 411 912 C 318 784 291 437 384 309 C 477 181 797 157 947 206 C 1097 255 1390 462 1390 620;M 1458 620 C 1458 788 1123 1032 963 1084 C 803 1136 503 1053 404 917 C 305 781 315 466 414 330 C 513 194 777 185 937 237 C 1097 289 1458 452 1458 620"></animate>
</path><path d="M 1388 620 C 1388 788 1118 1016 958 1068 C 798 1120 441 1098 342 962 C 243 826 325 474 424 338 C 523 202 770 208 930 260 C 1090 312 1388 452 1388 620" fill="url(#lg-0.22130586982175027)" opacity="0.4">
  <animate attributeName="d" dur="10s" repeatCount="indefinite" keyTimes="0;0.3333333333333333;0.6666666666666666;1" calcmod="spline" keySplines="0.3 0.1 0.7 0.9;0.3 0.1 0.7 0.9;0.3 0.1 0.7 0.9" begin="-4s" values="M 1388 620 C 1388 788 1118 1016 958 1068 C 798 1120 441 1098 342 962 C 243 826 325 474 424 338 C 523 202 770 208 930 260 C 1090 312 1388 452 1388 620;M 1426 620 C 1426 785 1125 1048 968 1099 C 811 1150 470 1072 373 939 C 276 806 284 439 381 306 C 478 173 807 102 964 153 C 1121 204 1426 455 1426 620;M 1486 620 C 1486 801 1133 1022 961 1078 C 789 1134 491 1077 385 930 C 279 783 185 387 291 241 C 397 95 768 172 940 228 C 1112 284 1486 439 1486 620;M 1388 620 C 1388 788 1118 1016 958 1068 C 798 1120 441 1098 342 962 C 243 826 325 474 424 338 C 523 202 770 208 930 260 C 1090 312 1388 452 1388 620"></animate>
</path><path d="M 1357 620 C 1357 782 1083 930 929 980 C 775 1030 525 1029 430 898 C 335 767 275 430 370 299 C 465 168 798 142 952 192 C 1106 242 1357 458 1357 620" fill="url(#lg-0.22130586982175027)" opacity="0.4">
  <animate attributeName="d" dur="10s" repeatCount="indefinite" keyTimes="0;0.3333333333333333;0.6666666666666666;1" calcmod="spline" keySplines="0.3 0.1 0.7 0.9;0.3 0.1 0.7 0.9;0.3 0.1 0.7 0.9" begin="-4s" values="M 1357 620 C 1357 782 1083 930 929 980 C 775 1030 525 1029 430 898 C 335 767 275 430 370 299 C 465 168 798 142 952 192 C 1106 242 1357 458 1357 620;M 1456 620 C 1456 791 1125 1032 963 1085 C 801 1138 499 1058 399 920 C 299 782 213 395 313 257 C 413 119 783 159 945 212 C 1107 265 1456 449 1456 620;M 1318 620 C 1318 776 1097 991 949 1039 C 801 1087 520 1026 428 900 C 336 774 260 411 352 285 C 444 159 772 240 920 288 C 1068 336 1318 464 1318 620;M 1357 620 C 1357 782 1083 930 929 980 C 775 1030 525 1029 430 898 C 335 767 275 430 370 299 C 465 168 798 142 952 192 C 1106 242 1357 458 1357 620"></animate>
</path><path d="M 1452 620 C 1452 781 1077 913 924 963 C 771 1013 465 1072 370 942 C 275 812 267 423 362 293 C 457 163 772 225 925 275 C 1078 325 1452 459 1452 620" fill="url(#lg-0.22130586982175027)" opacity="0.4">
  <animate attributeName="d" dur="10s" repeatCount="indefinite" keyTimes="0;0.3333333333333333;0.6666666666666666;1" calcmod="spline" keySplines="0.3 0.1 0.7 0.9;0.3 0.1 0.7 0.9;0.3 0.1 0.7 0.9" begin="-4s" values="M 1452 620 C 1452 781 1077 913 924 963 C 771 1013 465 1072 370 942 C 275 812 267 423 362 293 C 457 163 772 225 925 275 C 1078 325 1452 459 1452 620;M 1393 620 C 1393 780 1113 1029 961 1078 C 809 1127 491 1052 397 922 C 303 792 260 417 354 287 C 448 157 781 200 933 250 C 1085 300 1393 460 1393 620;M 1472 620 C 1472 789 1133 1059 972 1111 C 811 1163 461 1084 362 947 C 263 810 262 429 361 292 C 460 155 769 207 930 259 C 1091 311 1472 451 1472 620;M 1452 620 C 1452 781 1077 913 924 963 C 771 1013 465 1072 370 942 C 275 812 267 423 362 293 C 457 163 772 225 925 275 C 1078 325 1452 459 1452 620"></animate>
</path></g>
</svg>