<?xml version="1.0" encoding="utf-8"?>
<svg xmlns="http://www.w3.org/2000/svg" xmlns:xlink="http://www.w3.org/1999/xlink" style="margin: auto; background: rgb(255, 255, 255); display: block; z-index: 1; position: relative; shape-rendering: auto;" width="1625" height="1120" preserveAspectRatio="xMidYMid" viewBox="0 0 1625 1120">
<g transform="translate(812.5,560) scale(1,1) translate(-812.5,-560)"><linearGradient id="lg-0.5217904525814001" x1="0" x2="1" y1="0" y2="0">
  <stop stop-color="#043362" offset="0"></stop>
  <stop stop-color="#004b88" offset="1"></stop>
</linearGradient><path d="M 1342 560 C 1342 727 1097 894 938 946 C 779 998 457 1024 359 889 C 261 754 306 398 404 263 C 502 128 809 30 968 82 C 1127 134 1342 393 1342 560" fill="url(#lg-0.5217904525814001)" opacity="0.4">
  <animate attributeName="d" dur="10s" repeatCount="indefinite" keyTimes="0;0.3333333333333333;0.6666666666666666;1" calcmod="spline" keySplines="0.3 0.1 0.7 0.9;0.3 0.1 0.7 0.9;0.3 0.1 0.7 0.9" begin="-4s" values="M 1342 560 C 1342 727 1097 894 938 946 C 779 998 457 1024 359 889 C 261 754 306 398 404 263 C 502 128 809 30 968 82 C 1127 134 1342 393 1342 560;M 1418 560 C 1418 729 1129 985 968 1037 C 807 1089 491 1002 392 865 C 293 728 274 378 373 241 C 472 104 777 122 938 174 C 1099 226 1418 391 1418 560;M 1455 560 C 1455 746 1116 894 939 951 C 762 1008 392 1095 283 944 C 174 793 189 338 298 187 C 407 36 766 101 943 159 C 1120 217 1455 374 1455 560;M 1342 560 C 1342 727 1097 894 938 946 C 779 998 457 1024 359 889 C 261 754 306 398 404 263 C 502 128 809 30 968 82 C 1127 134 1342 393 1342 560"></animate>
</path><path d="M 1368 560 C 1368 718 1085 887 935 936 C 785 985 447 1021 354 893 C 261 765 314 393 407 265 C 500 137 770 180 920 229 C 1070 278 1368 402 1368 560" fill="url(#lg-0.5217904525814001)" opacity="0.4">
  <animate attributeName="d" dur="10s" repeatCount="indefinite" keyTimes="0;0.3333333333333333;0.6666666666666666;1" calcmod="spline" keySplines="0.3 0.1 0.7 0.9;0.3 0.1 0.7 0.9;0.3 0.1 0.7 0.9" begin="-4s" values="M 1368 560 C 1368 718 1085 887 935 936 C 785 985 447 1021 354 893 C 261 765 314 393 407 265 C 500 137 770 180 920 229 C 1070 278 1368 402 1368 560;M 1413 560 C 1413 715 1065 837 918 885 C 771 933 520 964 429 839 C 338 714 341 408 432 283 C 523 158 774 179 921 227 C 1068 275 1413 405 1413 560;M 1385 560 C 1385 730 1104 911 943 963 C 782 1015 494 1001 394 864 C 294 727 212 334 312 197 C 412 60 784 100 945 152 C 1106 204 1385 390 1385 560;M 1368 560 C 1368 718 1085 887 935 936 C 785 985 447 1021 354 893 C 261 765 314 393 407 265 C 500 137 770 180 920 229 C 1070 278 1368 402 1368 560"></animate>
</path><path d="M 1361 560 C 1361 726 1118 963 960 1014 C 802 1065 429 1045 331 910 C 233 775 251 358 349 223 C 447 88 771 149 929 200 C 1087 251 1361 394 1361 560" fill="url(#lg-0.5217904525814001)" opacity="0.4">
  <animate attributeName="d" dur="10s" repeatCount="indefinite" keyTimes="0;0.3333333333333333;0.6666666666666666;1" calcmod="spline" keySplines="0.3 0.1 0.7 0.9;0.3 0.1 0.7 0.9;0.3 0.1 0.7 0.9" begin="-4s" values="M 1361 560 C 1361 726 1118 963 960 1014 C 802 1065 429 1045 331 910 C 233 775 251 358 349 223 C 447 88 771 149 929 200 C 1087 251 1361 394 1361 560;M 1435 560 C 1435 744 1146 990 971 1047 C 796 1104 368 1110 260 961 C 152 812 189 334 297 185 C 405 36 798 8 973 65 C 1148 122 1435 376 1435 560;M 1404 560 C 1404 746 1116 894 939 951 C 762 1008 376 1106 267 956 C 158 806 249 380 358 230 C 467 80 765 104 942 161 C 1119 218 1404 374 1404 560;M 1361 560 C 1361 726 1118 963 960 1014 C 802 1065 429 1045 331 910 C 233 775 251 358 349 223 C 447 88 771 149 929 200 C 1087 251 1361 394 1361 560"></animate>
</path><path d="M 1493 560 C 1493 732 1100 888 936 941 C 772 994 453 1034 352 895 C 251 756 196 325 297 186 C 398 47 788 79 952 132 C 1116 185 1493 388 1493 560" fill="url(#lg-0.5217904525814001)" opacity="0.4">
  <animate attributeName="d" dur="10s" repeatCount="indefinite" keyTimes="0;0.3333333333333333;0.6666666666666666;1" calcmod="spline" keySplines="0.3 0.1 0.7 0.9;0.3 0.1 0.7 0.9;0.3 0.1 0.7 0.9" begin="-4s" values="M 1493 560 C 1493 732 1100 888 936 941 C 772 994 453 1034 352 895 C 251 756 196 325 297 186 C 398 47 788 79 952 132 C 1116 185 1493 388 1493 560;M 1464 560 C 1464 731 1115 938 952 991 C 789 1044 491 1005 390 867 C 289 729 288 390 389 252 C 490 114 790 75 953 128 C 1116 181 1464 389 1464 560;M 1444 560 C 1444 730 1106 911 944 964 C 782 1017 439 1042 339 904 C 239 766 226 345 326 207 C 426 69 796 59 958 111 C 1120 163 1444 390 1444 560;M 1493 560 C 1493 732 1100 888 936 941 C 772 994 453 1034 352 895 C 251 756 196 325 297 186 C 398 47 788 79 952 132 C 1116 185 1493 388 1493 560"></animate>
</path><path d="M 1365 560 C 1365 730 1123 963 961 1016 C 799 1069 519 984 419 846 C 319 708 316 410 416 272 C 516 134 780 108 942 160 C 1104 212 1365 390 1365 560" fill="url(#lg-0.5217904525814001)" opacity="0.4">
  <animate attributeName="d" dur="10s" repeatCount="indefinite" keyTimes="0;0.3333333333333333;0.6666666666666666;1" calcmod="spline" keySplines="0.3 0.1 0.7 0.9;0.3 0.1 0.7 0.9;0.3 0.1 0.7 0.9" begin="-4s" values="M 1365 560 C 1365 730 1123 963 961 1016 C 799 1069 519 984 419 846 C 319 708 316 410 416 272 C 516 134 780 108 942 160 C 1104 212 1365 390 1365 560;M 1483 560 C 1483 742 1135 963 962 1019 C 789 1075 489 1019 382 872 C 275 725 248 375 355 228 C 462 81 805 -6 978 50 C 1151 106 1483 378 1483 560;M 1328 560 C 1328 721 1105 940 952 990 C 799 1040 535 961 440 830 C 345 699 301 387 396 257 C 491 127 771 166 924 216 C 1077 266 1328 399 1328 560;M 1365 560 C 1365 730 1123 963 961 1016 C 799 1069 519 984 419 846 C 319 708 316 410 416 272 C 516 134 780 108 942 160 C 1104 212 1365 390 1365 560"></animate>
</path></g>
</svg>