<?xml version="1.0" encoding="utf-8"?>
<svg xmlns="http://www.w3.org/2000/svg" xmlns:xlink="http://www.w3.org/1999/xlink" style="margin: auto; background: rgb(255, 255, 255); display: block; z-index: 1; position: relative; shape-rendering: auto;" width="1625" height="1280" preserveAspectRatio="xMidYMid" viewBox="0 0 1625 1280">
<g transform="translate(812.5,640) scale(1,1) translate(-812.5,-640)"><linearGradient id="lg-0.07631169204417598" x1="0" x2="1" y1="0" y2="0">
  <stop stop-color="#043362" offset="0"></stop>
  <stop stop-color="#004b88" offset="1"></stop>
</linearGradient><path d="M 1390 640 C 1390 799 1102 1017 951 1066 C 800 1115 489 1071 396 942 C 303 813 262 437 355 308 C 448 179 782 219 933 268 C 1084 317 1390 481 1390 640" fill="url(#lg-0.07631169204417598)" opacity="0.4">
  <animate attributeName="d" dur="10s" repeatCount="indefinite" keyTimes="0;0.3333333333333333;0.6666666666666666;1" calcmod="spline" keySplines="0.3 0.1 0.7 0.9;0.3 0.1 0.7 0.9;0.3 0.1 0.7 0.9" begin="-4s" values="M 1390 640 C 1390 799 1102 1017 951 1066 C 800 1115 489 1071 396 942 C 303 813 262 437 355 308 C 448 179 782 219 933 268 C 1084 317 1390 481 1390 640;M 1482 640 C 1482 815 1141 1086 975 1140 C 809 1194 511 1075 408 934 C 305 793 220 425 323 284 C 426 143 810 82 976 136 C 1142 190 1482 465 1482 640;M 1480 640 C 1480 810 1113 1019 952 1071 C 791 1123 422 1133 322 996 C 222 859 289 469 389 332 C 489 195 794 149 955 201 C 1116 253 1480 470 1480 640;M 1390 640 C 1390 799 1102 1017 951 1066 C 800 1115 489 1071 396 942 C 303 813 262 437 355 308 C 448 179 782 219 933 268 C 1084 317 1390 481 1390 640"></animate>
</path><path d="M 1414 640 C 1414 800 1109 1036 957 1085 C 805 1134 505 1061 411 932 C 317 803 296 462 390 333 C 484 204 776 235 928 284 C 1080 333 1414 480 1414 640" fill="url(#lg-0.07631169204417598)" opacity="0.4">
  <animate attributeName="d" dur="10s" repeatCount="indefinite" keyTimes="0;0.3333333333333333;0.6666666666666666;1" calcmod="spline" keySplines="0.3 0.1 0.7 0.9;0.3 0.1 0.7 0.9;0.3 0.1 0.7 0.9" begin="-4s" values="M 1414 640 C 1414 800 1109 1036 957 1085 C 805 1134 505 1061 411 932 C 317 803 296 462 390 333 C 484 204 776 235 928 284 C 1080 333 1414 480 1414 640;M 1366 640 C 1366 796 1085 972 936 1020 C 787 1068 489 1068 397 942 C 305 816 330 482 422 356 C 514 230 802 165 951 213 C 1100 261 1366 484 1366 640;M 1408 640 C 1408 799 1089 977 938 1026 C 787 1075 499 1063 406 935 C 313 807 279 448 372 320 C 465 192 773 247 924 296 C 1075 345 1408 481 1408 640;M 1414 640 C 1414 800 1109 1036 957 1085 C 805 1134 505 1061 411 932 C 317 803 296 462 390 333 C 484 204 776 235 928 284 C 1080 333 1414 480 1414 640"></animate>
</path><path d="M 1483 640 C 1483 824 1113 968 938 1025 C 763 1082 472 1115 364 966 C 256 817 254 462 362 313 C 470 164 786 127 961 184 C 1136 241 1483 456 1483 640" fill="url(#lg-0.07631169204417598)" opacity="0.4">
  <animate attributeName="d" dur="10s" repeatCount="indefinite" keyTimes="0;0.3333333333333333;0.6666666666666666;1" calcmod="spline" keySplines="0.3 0.1 0.7 0.9;0.3 0.1 0.7 0.9;0.3 0.1 0.7 0.9" begin="-4s" values="M 1483 640 C 1483 824 1113 968 938 1025 C 763 1082 472 1115 364 966 C 256 817 254 462 362 313 C 470 164 786 127 961 184 C 1136 241 1483 456 1483 640;M 1412 640 C 1412 794 1082 973 936 1020 C 790 1067 497 1059 407 935 C 317 811 352 495 442 371 C 532 247 789 216 935 264 C 1081 312 1412 486 1412 640;M 1366 640 C 1366 804 1112 1033 956 1083 C 800 1133 509 1063 413 930 C 317 797 241 426 337 294 C 433 162 767 249 923 300 C 1079 351 1366 476 1366 640;M 1483 640 C 1483 824 1113 968 938 1025 C 763 1082 472 1115 364 966 C 256 817 254 462 362 313 C 470 164 786 127 961 184 C 1136 241 1483 456 1483 640"></animate>
</path><path d="M 1452 640 C 1452 821 1122 1007 950 1063 C 778 1119 408 1157 302 1011 C 196 865 224 435 330 289 C 436 143 773 176 945 232 C 1117 288 1452 459 1452 640" fill="url(#lg-0.07631169204417598)" opacity="0.4">
  <animate attributeName="d" dur="10s" repeatCount="indefinite" keyTimes="0;0.3333333333333333;0.6666666666666666;1" calcmod="spline" keySplines="0.3 0.1 0.7 0.9;0.3 0.1 0.7 0.9;0.3 0.1 0.7 0.9" begin="-4s" values="M 1452 640 C 1452 821 1122 1007 950 1063 C 778 1119 408 1157 302 1011 C 196 865 224 435 330 289 C 436 143 773 176 945 232 C 1117 288 1452 459 1452 640;M 1407 640 C 1407 811 1111 1004 948 1057 C 785 1110 487 1089 386 950 C 285 811 226 426 327 287 C 428 148 808 101 971 154 C 1134 207 1407 469 1407 640;M 1381 640 C 1381 817 1134 1058 966 1113 C 798 1168 493 1091 389 948 C 285 805 259 456 363 313 C 467 170 773 191 941 246 C 1109 301 1381 463 1381 640;M 1452 640 C 1452 821 1122 1007 950 1063 C 778 1119 408 1157 302 1011 C 196 865 224 435 330 289 C 436 143 773 176 945 232 C 1117 288 1452 459 1452 640"></animate>
</path><path d="M 1429 640 C 1429 809 1113 1016 952 1068 C 791 1120 435 1123 336 986 C 237 849 230 425 329 288 C 428 151 788 168 949 220 C 1110 272 1429 471 1429 640" fill="url(#lg-0.07631169204417598)" opacity="0.4">
  <animate attributeName="d" dur="10s" repeatCount="indefinite" keyTimes="0;0.3333333333333333;0.6666666666666666;1" calcmod="spline" keySplines="0.3 0.1 0.7 0.9;0.3 0.1 0.7 0.9;0.3 0.1 0.7 0.9" begin="-4s" values="M 1429 640 C 1429 809 1113 1016 952 1068 C 791 1120 435 1123 336 986 C 237 849 230 425 329 288 C 428 151 788 168 949 220 C 1110 272 1429 471 1429 640;M 1383 640 C 1383 799 1091 984 940 1033 C 789 1082 484 1074 391 946 C 298 818 327 483 420 355 C 513 227 803 156 954 205 C 1105 254 1383 481 1383 640;M 1445 640 C 1445 799 1082 952 930 1001 C 778 1050 459 1094 365 965 C 271 836 270 443 364 314 C 458 185 790 194 942 243 C 1094 292 1445 481 1445 640;M 1429 640 C 1429 809 1113 1016 952 1068 C 791 1120 435 1123 336 986 C 237 849 230 425 329 288 C 428 151 788 168 949 220 C 1110 272 1429 471 1429 640"></animate>
</path></g>
</svg>