<?xml version="1.0" encoding="utf-8"?>
<svg xmlns="http://www.w3.org/2000/svg" xmlns:xlink="http://www.w3.org/1999/xlink" style="margin: auto; background: rgb(255, 255, 255); display: block; z-index: 1; position: relative; shape-rendering: auto;" width="1625" height="1340" preserveAspectRatio="xMidYMid" viewBox="0 0 1625 1340">
<g transform="translate(812.5,670) scale(1,1) translate(-812.5,-670)"><linearGradient id="lg-0.9295182053384901" x1="0" x2="1" y1="0" y2="0">
  <stop stop-color="#043362" offset="0"></stop>
  <stop stop-color="#004b88" offset="1"></stop>
</linearGradient><path d="M 1453 670 C 1453 835 1102 1026 945 1077 C 788 1128 413 1165 316 1031 C 219 897 276 485 373 351 C 470 217 776 249 933 300 C 1090 351 1453 505 1453 670" fill="url(#lg-0.9295182053384901)" opacity="0.4">
  <animate attributeName="d" dur="10s" repeatCount="indefinite" keyTimes="0;0.3333333333333333;0.6666666666666666;1" calcmod="spline" keySplines="0.3 0.1 0.7 0.9;0.3 0.1 0.7 0.9;0.3 0.1 0.7 0.9" begin="-4s" values="M 1453 670 C 1453 835 1102 1026 945 1077 C 788 1128 413 1165 316 1031 C 219 897 276 485 373 351 C 470 217 776 249 933 300 C 1090 351 1453 505 1453 670;M 1452 670 C 1452 836 1102 1025 944 1076 C 786 1127 443 1143 346 1009 C 249 875 218 443 315 309 C 412 175 780 233 938 284 C 1096 335 1452 504 1452 670;M 1407 670 C 1407 846 1119 1046 952 1100 C 785 1154 389 1195 286 1053 C 183 911 305 518 408 376 C 511 234 799 144 966 198 C 1133 252 1407 494 1407 670;M 1453 670 C 1453 835 1102 1026 945 1077 C 788 1128 413 1165 316 1031 C 219 897 276 485 373 351 C 470 217 776 249 933 300 C 1090 351 1453 505 1453 670"></animate>
</path><path d="M 1350 670 C 1350 840 1119 1066 958 1118 C 797 1170 417 1167 317 1030 C 217 893 228 455 328 318 C 428 181 789 194 950 246 C 1111 298 1350 500 1350 670" fill="url(#lg-0.9295182053384901)" opacity="0.4">
  <animate attributeName="d" dur="10s" repeatCount="indefinite" keyTimes="0;0.3333333333333333;0.6666666666666666;1" calcmod="spline" keySplines="0.3 0.1 0.7 0.9;0.3 0.1 0.7 0.9;0.3 0.1 0.7 0.9" begin="-4s" values="M 1350 670 C 1350 840 1119 1066 958 1118 C 797 1170 417 1167 317 1030 C 217 893 228 455 328 318 C 428 181 789 194 950 246 C 1111 298 1350 500 1350 670;M 1346 670 C 1346 837 1113 1054 954 1106 C 795 1158 472 1123 374 988 C 276 853 323 521 421 386 C 519 251 810 136 969 187 C 1128 238 1346 503 1346 670;M 1395 670 C 1395 831 1092 1010 939 1060 C 786 1110 529 1075 434 945 C 339 815 285 486 380 356 C 475 226 781 247 934 297 C 1087 347 1395 509 1395 670;M 1350 670 C 1350 840 1119 1066 958 1118 C 797 1170 417 1167 317 1030 C 217 893 228 455 328 318 C 428 181 789 194 950 246 C 1111 298 1350 500 1350 670"></animate>
</path><path d="M 1450 670 C 1450 855 1118 1013 942 1070 C 766 1127 495 1128 387 979 C 279 830 181 439 290 290 C 399 141 770 201 946 258 C 1122 315 1450 485 1450 670" fill="url(#lg-0.9295182053384901)" opacity="0.4">
  <animate attributeName="d" dur="10s" repeatCount="indefinite" keyTimes="0;0.3333333333333333;0.6666666666666666;1" calcmod="spline" keySplines="0.3 0.1 0.7 0.9;0.3 0.1 0.7 0.9;0.3 0.1 0.7 0.9" begin="-4s" values="M 1450 670 C 1450 855 1118 1013 942 1070 C 766 1127 495 1128 387 979 C 279 830 181 439 290 290 C 399 141 770 201 946 258 C 1122 315 1450 485 1450 670;M 1410 670 C 1410 834 1112 1060 956 1111 C 800 1162 497 1101 401 969 C 305 837 269 477 365 345 C 461 213 787 217 943 268 C 1099 319 1410 506 1410 670;M 1374 670 C 1374 843 1132 1095 968 1148 C 804 1201 415 1173 313 1033 C 211 893 225 457 326 317 C 427 177 771 239 935 292 C 1099 345 1374 497 1374 670;M 1450 670 C 1450 855 1118 1013 942 1070 C 766 1127 495 1128 387 979 C 279 830 181 439 290 290 C 399 141 770 201 946 258 C 1122 315 1450 485 1450 670"></animate>
</path><path d="M 1379 670 C 1379 846 1139 1105 971 1159 C 803 1213 418 1175 314 1032 C 210 889 278 500 382 357 C 486 214 765 245 933 300 C 1101 355 1379 494 1379 670" fill="url(#lg-0.9295182053384901)" opacity="0.4">
  <animate attributeName="d" dur="10s" repeatCount="indefinite" keyTimes="0;0.3333333333333333;0.6666666666666666;1" calcmod="spline" keySplines="0.3 0.1 0.7 0.9;0.3 0.1 0.7 0.9;0.3 0.1 0.7 0.9" begin="-4s" values="M 1379 670 C 1379 846 1139 1105 971 1159 C 803 1213 418 1175 314 1032 C 210 889 278 500 382 357 C 486 214 765 245 933 300 C 1101 355 1379 494 1379 670;M 1386 670 C 1386 840 1120 1069 959 1121 C 798 1173 402 1178 302 1041 C 202 904 316 519 416 382 C 516 245 789 195 950 247 C 1111 299 1386 500 1386 670;M 1452 670 C 1452 840 1106 1021 944 1074 C 782 1127 430 1158 330 1020 C 230 882 237 463 337 325 C 437 187 791 184 953 237 C 1115 290 1452 500 1452 670;M 1379 670 C 1379 846 1139 1105 971 1159 C 803 1213 418 1175 314 1032 C 210 889 278 500 382 357 C 486 214 765 245 933 300 C 1101 355 1379 494 1379 670"></animate>
</path><path d="M 1373 670 C 1373 843 1123 1066 958 1119 C 793 1172 516 1100 414 960 C 312 820 193 434 295 294 C 397 154 778 214 943 268 C 1108 322 1373 497 1373 670" fill="url(#lg-0.9295182053384901)" opacity="0.4">
  <animate attributeName="d" dur="10s" repeatCount="indefinite" keyTimes="0;0.3333333333333333;0.6666666666666666;1" calcmod="spline" keySplines="0.3 0.1 0.7 0.9;0.3 0.1 0.7 0.9;0.3 0.1 0.7 0.9" begin="-4s" values="M 1373 670 C 1373 843 1123 1066 958 1119 C 793 1172 516 1100 414 960 C 312 820 193 434 295 294 C 397 154 778 214 943 268 C 1108 322 1373 497 1373 670;M 1386 670 C 1386 850 1118 1029 947 1084 C 776 1139 401 1191 295 1046 C 189 901 251 484 357 339 C 463 194 807 105 978 160 C 1149 215 1386 490 1386 670;M 1503 670 C 1503 844 1115 1040 950 1094 C 785 1148 481 1126 379 985 C 277 844 224 458 326 317 C 428 176 796 160 961 214 C 1126 268 1503 496 1503 670;M 1373 670 C 1373 843 1123 1066 958 1119 C 793 1172 516 1100 414 960 C 312 820 193 434 295 294 C 397 154 778 214 943 268 C 1108 322 1373 497 1373 670"></animate>
</path></g>
</svg>