<?xml version="1.0" encoding="utf-8"?>
<svg xmlns="http://www.w3.org/2000/svg" xmlns:xlink="http://www.w3.org/1999/xlink" style="margin: auto; background: rgb(255, 255, 255); display: block; z-index: 1; position: relative; shape-rendering: auto;" width="2110" height="1240" preserveAspectRatio="xMidYMid" viewBox="0 0 2110 1240">
<g transform="translate(1055,620) scale(1,1) translate(-1055,-620)"><linearGradient id="lg-0.7774423694779196" x1="0" x2="1" y1="0" y2="0">
  <stop stop-color="#043362" offset="0"></stop>
  <stop stop-color="#004b88" offset="1"></stop>
</linearGradient><path d="M 1564 620 C 1564 775 1319 928 1171 976 C 1023 1024 692 1076 601 950 C 510 824 518 422 609 296 C 700 170 1029 197 1177 245 C 1325 293 1564 465 1564 620" fill="url(#lg-0.7774423694779196)" opacity="0.4">
  <animate attributeName="d" dur="10s" repeatCount="indefinite" keyTimes="0;0.3333333333333333;0.6666666666666666;1" calcmod="spline" keySplines="0.3 0.1 0.7 0.9;0.3 0.1 0.7 0.9;0.3 0.1 0.7 0.9" begin="-4s" values="M 1564 620 C 1564 775 1319 928 1171 976 C 1023 1024 692 1076 601 950 C 510 824 518 422 609 296 C 700 170 1029 197 1177 245 C 1325 293 1564 465 1564 620;M 1697 620 C 1697 783 1323 915 1168 966 C 1013 1017 704 1077 608 945 C 512 813 524 436 620 304 C 716 172 1037 149 1192 200 C 1347 251 1697 457 1697 620;M 1657 620 C 1657 786 1362 1026 1204 1077 C 1046 1128 653 1117 555 983 C 457 849 562 467 659 333 C 756 199 1035 145 1193 197 C 1351 249 1657 454 1657 620;M 1564 620 C 1564 775 1319 928 1171 976 C 1023 1024 692 1076 601 950 C 510 824 518 422 609 296 C 700 170 1029 197 1177 245 C 1325 293 1564 465 1564 620"></animate>
</path><path d="M 1726 620 C 1726 806 1360 955 1183 1013 C 1006 1071 662 1136 553 985 C 444 834 392 369 501 218 C 610 67 1011 154 1188 212 C 1365 270 1726 434 1726 620" fill="url(#lg-0.7774423694779196)" opacity="0.4">
  <animate attributeName="d" dur="10s" repeatCount="indefinite" keyTimes="0;0.3333333333333333;0.6666666666666666;1" calcmod="spline" keySplines="0.3 0.1 0.7 0.9;0.3 0.1 0.7 0.9;0.3 0.1 0.7 0.9" begin="-4s" values="M 1726 620 C 1726 806 1360 955 1183 1013 C 1006 1071 662 1136 553 985 C 444 834 392 369 501 218 C 610 67 1011 154 1188 212 C 1365 270 1726 434 1726 620;M 1583 620 C 1583 786 1343 968 1185 1019 C 1027 1070 733 1058 636 924 C 539 790 509 428 606 294 C 703 160 1043 119 1201 170 C 1359 221 1583 454 1583 620;M 1675 620 C 1675 776 1310 901 1162 949 C 1014 997 681 1085 589 959 C 497 833 536 436 628 310 C 720 184 1037 172 1185 220 C 1333 268 1675 464 1675 620;M 1726 620 C 1726 806 1360 955 1183 1013 C 1006 1071 662 1136 553 985 C 444 834 392 369 501 218 C 610 67 1011 154 1188 212 C 1365 270 1726 434 1726 620"></animate>
</path><path d="M 1603 620 C 1603 797 1375 1034 1207 1089 C 1039 1144 702 1095 598 952 C 494 809 460 406 564 263 C 668 120 1014 174 1182 228 C 1350 282 1603 443 1603 620" fill="url(#lg-0.7774423694779196)" opacity="0.4">
  <animate attributeName="d" dur="10s" repeatCount="indefinite" keyTimes="0;0.3333333333333333;0.6666666666666666;1" calcmod="spline" keySplines="0.3 0.1 0.7 0.9;0.3 0.1 0.7 0.9;0.3 0.1 0.7 0.9" begin="-4s" values="M 1603 620 C 1603 797 1375 1034 1207 1089 C 1039 1144 702 1095 598 952 C 494 809 460 406 564 263 C 668 120 1014 174 1182 228 C 1350 282 1603 443 1603 620;M 1603 620 C 1603 787 1354 1000 1195 1052 C 1036 1104 751 1047 653 912 C 555 777 487 414 585 279 C 683 144 1020 185 1179 237 C 1338 289 1603 453 1603 620;M 1669 620 C 1669 792 1353 982 1190 1035 C 1027 1088 746 1057 645 918 C 544 779 473 409 574 270 C 675 131 1026 156 1189 209 C 1352 262 1669 448 1669 620;M 1603 620 C 1603 797 1375 1034 1207 1089 C 1039 1144 702 1095 598 952 C 494 809 460 406 564 263 C 668 120 1014 174 1182 228 C 1350 282 1603 443 1603 620"></animate>
</path><path d="M 1698 620 C 1698 797 1356 970 1187 1025 C 1018 1080 641 1140 537 997 C 433 854 452 400 556 257 C 660 114 1009 186 1178 241 C 1347 296 1698 443 1698 620" fill="url(#lg-0.7774423694779196)" opacity="0.4">
  <animate attributeName="d" dur="10s" repeatCount="indefinite" keyTimes="0;0.3333333333333333;0.6666666666666666;1" calcmod="spline" keySplines="0.3 0.1 0.7 0.9;0.3 0.1 0.7 0.9;0.3 0.1 0.7 0.9" begin="-4s" values="M 1698 620 C 1698 797 1356 970 1187 1025 C 1018 1080 641 1140 537 997 C 433 854 452 400 556 257 C 660 114 1009 186 1178 241 C 1347 296 1698 443 1698 620;M 1637 620 C 1637 773 1326 960 1181 1007 C 1036 1054 785 1006 695 882 C 605 758 570 457 660 333 C 750 209 1017 245 1162 292 C 1307 339 1637 467 1637 620;M 1606 620 C 1606 777 1333 967 1184 1016 C 1035 1065 752 1034 660 907 C 568 780 554 450 646 323 C 738 196 1051 125 1200 173 C 1349 221 1606 463 1606 620;M 1698 620 C 1698 797 1356 970 1187 1025 C 1018 1080 641 1140 537 997 C 433 854 452 400 556 257 C 660 114 1009 186 1178 241 C 1347 296 1698 443 1698 620"></animate>
</path><path d="M 1636 620 C 1636 801 1390 1065 1218 1121 C 1046 1177 641 1144 535 998 C 429 852 525 458 631 312 C 737 166 1029 115 1201 171 C 1373 227 1636 439 1636 620" fill="url(#lg-0.7774423694779196)" opacity="0.4">
  <animate attributeName="d" dur="10s" repeatCount="indefinite" keyTimes="0;0.3333333333333333;0.6666666666666666;1" calcmod="spline" keySplines="0.3 0.1 0.7 0.9;0.3 0.1 0.7 0.9;0.3 0.1 0.7 0.9" begin="-4s" values="M 1636 620 C 1636 801 1390 1065 1218 1121 C 1046 1177 641 1144 535 998 C 429 852 525 458 631 312 C 737 166 1029 115 1201 171 C 1373 227 1636 439 1636 620;M 1655 620 C 1655 785 1362 1031 1205 1082 C 1048 1133 724 1065 627 931 C 530 797 464 395 561 261 C 658 127 1053 93 1210 144 C 1367 195 1655 455 1655 620;M 1561 620 C 1561 774 1322 942 1175 990 C 1028 1038 769 1019 678 894 C 587 769 499 407 590 282 C 681 157 1012 251 1159 299 C 1306 347 1561 466 1561 620;M 1636 620 C 1636 801 1390 1065 1218 1121 C 1046 1177 641 1144 535 998 C 429 852 525 458 631 312 C 737 166 1029 115 1201 171 C 1373 227 1636 439 1636 620"></animate>
</path></g>
</svg>