<?xml version="1.0" encoding="utf-8"?>
<svg xmlns="http://www.w3.org/2000/svg" xmlns:xlink="http://www.w3.org/1999/xlink" style="margin: auto; background: rgb(255, 255, 255); display: block; z-index: 1; position: relative; shape-rendering: auto;" width="2501" height="1539" preserveAspectRatio="xMidYMid" viewBox="0 0 2501 1539">
<g transform="translate(1250.5,769.5) scale(1,1) translate(-1250.5,-769.5)"><linearGradient id="lg-0.6426190832864329" x1="0" x2="1" y1="0" y2="0">
  <stop stop-color="#043362" offset="0"></stop>
  <stop stop-color="#004b88" offset="1"></stop>
</linearGradient><path d="M 1763 770 C 1763 935 1554 1170 1397 1221 C 1240 1272 902 1227 805 1093 C 708 959 773 627 870 493 C 967 359 1241 266 1398 317 C 1555 368 1763 605 1763 770" fill="url(#lg-0.6426190832864329)" opacity="0.4">
  <animate attributeName="d" dur="10s" repeatCount="indefinite" keyTimes="0;0.3333333333333333;0.6666666666666666;1" calcmod="spline" keySplines="0.3 0.1 0.7 0.9;0.3 0.1 0.7 0.9;0.3 0.1 0.7 0.9" begin="-4s" values="M 1763 770 C 1763 935 1554 1170 1397 1221 C 1240 1272 902 1227 805 1093 C 708 959 773 627 870 493 C 967 359 1241 266 1398 317 C 1555 368 1763 605 1763 770;M 1844 770 C 1844 936 1527 1084 1369 1135 C 1211 1186 929 1209 831 1074 C 733 939 718 589 816 454 C 914 319 1233 286 1391 337 C 1549 388 1844 604 1844 770;M 1826 770 C 1826 951 1569 1164 1397 1220 C 1225 1276 813 1311 707 1165 C 601 1019 617 532 723 386 C 829 240 1226 259 1398 315 C 1570 371 1826 589 1826 770;M 1763 770 C 1763 935 1554 1170 1397 1221 C 1240 1272 902 1227 805 1093 C 708 959 773 627 870 493 C 967 359 1241 266 1398 317 C 1555 368 1763 605 1763 770"></animate>
</path><path d="M 1772 770 C 1772 937 1558 1177 1399 1228 C 1240 1279 922 1215 824 1080 C 726 945 759 618 857 483 C 955 348 1247 239 1406 291 C 1565 343 1772 603 1772 770" fill="url(#lg-0.6426190832864329)" opacity="0.4">
  <animate attributeName="d" dur="10s" repeatCount="indefinite" keyTimes="0;0.3333333333333333;0.6666666666666666;1" calcmod="spline" keySplines="0.3 0.1 0.7 0.9;0.3 0.1 0.7 0.9;0.3 0.1 0.7 0.9" begin="-4s" values="M 1772 770 C 1772 937 1558 1177 1399 1228 C 1240 1279 922 1215 824 1080 C 726 945 759 618 857 483 C 955 348 1247 239 1406 291 C 1565 343 1772 603 1772 770;M 1753 770 C 1753 929 1531 1118 1380 1167 C 1229 1216 922 1204 829 1076 C 736 948 790 630 883 502 C 976 374 1230 320 1381 369 C 1532 418 1753 611 1753 770;M 1843 770 C 1843 925 1540 1159 1393 1207 C 1246 1255 973 1162 882 1037 C 791 912 711 569 802 444 C 893 319 1232 325 1379 373 C 1526 421 1843 615 1843 770;M 1772 770 C 1772 937 1558 1177 1399 1228 C 1240 1279 922 1215 824 1080 C 726 945 759 618 857 483 C 955 348 1247 239 1406 291 C 1565 343 1772 603 1772 770"></animate>
</path><path d="M 1874 770 C 1874 939 1550 1143 1389 1195 C 1228 1247 912 1225 812 1088 C 712 951 737 606 837 469 C 937 332 1213 337 1374 389 C 1535 441 1874 601 1874 770" fill="url(#lg-0.6426190832864329)" opacity="0.4">
  <animate attributeName="d" dur="10s" repeatCount="indefinite" keyTimes="0;0.3333333333333333;0.6666666666666666;1" calcmod="spline" keySplines="0.3 0.1 0.7 0.9;0.3 0.1 0.7 0.9;0.3 0.1 0.7 0.9" begin="-4s" values="M 1874 770 C 1874 939 1550 1143 1389 1195 C 1228 1247 912 1225 812 1088 C 712 951 737 606 837 469 C 937 332 1213 337 1374 389 C 1535 441 1874 601 1874 770;M 1963 770 C 1963 952 1547 1094 1374 1150 C 1201 1206 856 1281 749 1134 C 642 987 687 585 794 438 C 901 291 1245 198 1418 254 C 1591 310 1963 588 1963 770;M 1889 770 C 1889 938 1553 1160 1394 1212 C 1235 1264 911 1224 812 1088 C 713 952 745 610 844 474 C 943 338 1242 254 1401 306 C 1560 358 1889 602 1889 770;M 1874 770 C 1874 939 1550 1143 1389 1195 C 1228 1247 912 1225 812 1088 C 712 951 737 606 837 469 C 937 332 1213 337 1374 389 C 1535 441 1874 601 1874 770"></animate>
</path><path d="M 1832 770 C 1832 948 1558 1140 1389 1195 C 1220 1250 856 1275 752 1131 C 648 987 628 537 733 393 C 838 249 1239 229 1408 284 C 1577 339 1832 592 1832 770" fill="url(#lg-0.6426190832864329)" opacity="0.4">
  <animate attributeName="d" dur="10s" repeatCount="indefinite" keyTimes="0;0.3333333333333333;0.6666666666666666;1" calcmod="spline" keySplines="0.3 0.1 0.7 0.9;0.3 0.1 0.7 0.9;0.3 0.1 0.7 0.9" begin="-4s" values="M 1832 770 C 1832 948 1558 1140 1389 1195 C 1220 1250 856 1275 752 1131 C 648 987 628 537 733 393 C 838 249 1239 229 1408 284 C 1577 339 1832 592 1832 770;M 1983 770 C 1983 956 1561 1122 1384 1180 C 1207 1238 873 1275 763 1124 C 653 973 609 534 718 383 C 827 232 1205 307 1382 365 C 1559 423 1983 584 1983 770;M 1832 770 C 1832 931 1552 1178 1399 1228 C 1246 1278 863 1250 768 1120 C 673 990 775 623 870 493 C 965 363 1248 257 1401 307 C 1554 357 1832 609 1832 770;M 1832 770 C 1832 948 1558 1140 1389 1195 C 1220 1250 856 1275 752 1131 C 648 987 628 537 733 393 C 838 249 1239 229 1408 284 C 1577 339 1832 592 1832 770"></animate>
</path><path d="M 1790 770 C 1790 942 1572 1200 1408 1253 C 1244 1306 885 1247 784 1108 C 683 969 634 534 735 395 C 836 256 1218 312 1382 365 C 1546 418 1790 598 1790 770" fill="url(#lg-0.6426190832864329)" opacity="0.4">
  <animate attributeName="d" dur="10s" repeatCount="indefinite" keyTimes="0;0.3333333333333333;0.6666666666666666;1" calcmod="spline" keySplines="0.3 0.1 0.7 0.9;0.3 0.1 0.7 0.9;0.3 0.1 0.7 0.9" begin="-4s" values="M 1790 770 C 1790 942 1572 1200 1408 1253 C 1244 1306 885 1247 784 1108 C 683 969 634 534 735 395 C 836 256 1218 312 1382 365 C 1546 418 1790 598 1790 770;M 1845 770 C 1845 928 1543 1159 1393 1208 C 1243 1257 954 1180 861 1052 C 768 924 790 631 883 503 C 976 375 1249 264 1399 313 C 1549 362 1845 612 1845 770;M 1861 770 C 1861 954 1575 1173 1400 1230 C 1225 1287 887 1261 779 1112 C 671 963 607 530 715 381 C 823 232 1208 304 1383 361 C 1558 418 1861 586 1861 770;M 1790 770 C 1790 942 1572 1200 1408 1253 C 1244 1306 885 1247 784 1108 C 683 969 634 534 735 395 C 836 256 1218 312 1382 365 C 1546 418 1790 598 1790 770"></animate>
</path></g>
</svg>